<svg width="800" height="800" viewBox="0 0 800 800" fill="none" xmlns="http://www.w3.org/2000/svg">
<rect width="800" height="800" rx="20" fill="#174444"/>
<circle cx="399.5" cy="399.5" r="36.5" fill="#AB6767"/>
<path d="M399.5 66C346.757 66 304 108.757 304 161.5C304 194.202 320.437 223.065 345.5 240.278L399.75 279L434 304.498C448.558 315.242 458 332.518 458 352L495 351.5C495 318.798 478.563 289.935 453.5 272.722L399.25 234L365 208.502C350.442 197.758 341 180.482 341 161C341 128.415 367.415 102 400 102C419.704 102 437.152 111.659 447.867 126.5L447.5 126.687C432.717 131.353 422 145.175 422 161.5C422 177.825 432.717 191.647 447.5 196.313L455.551 239.268C456.163 242.532 460.837 242.532 461.449 239.268L469.5 196.313C484.283 191.647 495 177.825 495 161.5C495 108.757 452.243 66 399.5 66Z" fill="#AB6767"/>
<path d="M138.363 191.761C105.479 232.998 112.251 293.085 153.488 325.969C179.056 346.358 211.87 351.502 240.954 342.638L305.052 324.365L346.342 313.484C363.818 308.801 383.213 312.19 398.444 324.336L421.122 295.096C395.554 274.707 362.739 269.563 333.655 278.427L269.557 296.7L228.268 307.581C210.792 312.264 191.397 308.875 176.166 296.729C150.689 276.413 146.506 239.292 166.821 213.815C179.106 198.41 197.536 190.79 215.82 191.666L215.737 192.069C210.169 206.536 214.294 223.533 227.058 233.711C239.821 243.889 257.31 244.127 270.175 235.479L308.779 255.966C311.711 257.522 314.626 253.867 312.456 251.355L283.891 218.279C289.459 203.811 285.335 186.815 272.571 176.636C231.334 143.753 171.247 150.524 138.363 191.761Z" fill="#AB6767"/>
<path d="M73.8778 474.339C85.6168 525.759 136.818 557.927 188.238 546.188C220.12 538.909 244.6 516.461 255.803 488.195L281.479 426.688L298.715 387.622C305.949 371.038 320.691 357.987 339.684 353.651L330.961 317.691C299.079 324.969 274.599 347.418 263.396 375.683L237.719 437.191L220.484 476.257C213.25 492.841 198.508 505.891 179.515 510.227C147.748 517.48 116.116 497.606 108.864 465.839C104.478 446.629 110.011 427.469 122.095 413.719L122.359 414.036C130.199 427.409 146.059 434.781 161.975 431.148C177.89 427.514 188.98 413.989 190.239 398.539L230.325 381.129C233.37 379.807 232.33 375.25 229.012 375.38L185.343 377.091C177.503 363.718 161.642 356.345 145.727 359.979C94.3067 371.718 62.1388 422.919 73.8778 474.339Z" fill="#AB6767"/>
<path d="M254.605 700.935C302.127 723.816 359.2 703.84 382.08 656.319C396.267 626.854 393.979 593.718 378.864 567.336L346.783 508.913L326.985 471.081C318.53 455.085 317.517 435.423 325.968 417.87L292.414 402.269C278.228 431.734 280.516 464.87 295.631 491.252L327.712 549.675L347.51 587.507C355.965 603.503 356.978 623.165 348.527 640.718C334.391 670.077 299.131 682.418 269.772 668.282C252.019 659.734 240.489 643.462 237.272 625.442L237.684 625.433C253.028 627.641 268.68 619.837 275.762 605.128C282.844 590.419 279.184 573.317 267.889 562.699L279.27 520.504C280.134 517.298 275.923 515.271 273.956 517.945L248.067 553.155C232.724 550.947 217.071 558.751 209.989 573.46C187.108 620.981 207.084 678.054 254.605 700.935Z" fill="#AB6767"/>
<path d="M544.395 700.934C591.916 678.053 611.892 620.981 589.011 573.459C574.824 543.995 547.493 525.12 517.444 520.484L451.767 509.13L409.846 501.014C392.068 497.649 376.066 486.179 367.615 468.626L334.494 485.128C348.681 514.593 376.012 533.467 406.061 538.104L471.739 549.458L513.659 557.573C531.437 560.938 547.439 572.408 555.891 589.961C570.027 619.32 557.686 654.579 528.327 668.715C510.574 677.263 490.663 676.13 474.57 667.406L474.82 667.079C486.114 656.461 489.775 639.358 482.693 624.65C475.611 609.941 459.958 602.137 444.615 604.345L418.726 569.135C416.759 566.46 412.548 568.488 413.412 571.694L424.793 613.889C413.498 624.507 409.838 641.609 416.92 656.318C439.8 703.84 496.873 723.815 544.395 700.934Z" fill="#AB6767"/>
<path d="M660.637 191.761C627.753 150.524 567.666 143.752 526.429 176.636C500.861 197.025 488.543 227.871 490.711 258.199L494.259 324.756L495.678 367.431C496.354 385.512 488.733 403.665 473.502 415.812L496.961 444.428C522.529 424.04 534.847 393.193 532.679 362.866L529.131 296.309L527.712 253.633C527.036 235.553 534.657 217.399 549.888 205.253C575.365 184.937 612.486 189.121 632.802 214.597C645.087 230.002 648.413 249.666 643.491 267.297L643.116 267.126C630.251 258.478 612.762 258.716 599.999 268.894C587.235 279.072 583.11 296.069 588.678 310.536L560.114 343.612C557.944 346.125 560.858 349.779 563.791 348.223L602.395 327.737C615.26 336.385 632.748 336.147 645.512 325.969C686.749 293.085 693.521 232.998 660.637 191.761Z" fill="#AB6767"/>
<path d="M725.122 474.339C736.861 422.919 704.693 371.718 653.273 359.979C621.391 352.7 589.594 362.301 567.234 382.904L517.409 427.175L484.928 454.891C471.213 466.692 452.269 472.053 433.276 467.717L425.528 503.9C457.41 511.178 489.207 501.578 511.567 480.974L561.392 436.704L593.873 408.988C607.588 397.186 626.532 391.826 645.525 396.162C677.293 403.415 697.166 435.046 689.914 466.814C685.528 486.023 672.228 500.884 655.375 508.027L655.274 507.628C654.015 492.177 642.925 478.653 627.01 475.019C611.094 471.386 595.234 478.758 587.394 492.131L543.725 490.42C540.407 490.29 539.367 494.847 542.412 496.169L582.498 513.579C583.757 529.03 594.847 542.555 610.762 546.188C662.182 557.927 713.383 525.759 725.122 474.339Z" fill="#AB6767"/>
</svg>
