<svg width="210" height="374" viewBox="0 0 210 374" fill="none" xmlns="http://www.w3.org/2000/svg">
<path d="M104.488 12C71.1083 12 44.0488 38.4152 44.0488 71C44.0488 90.4817 53.7213 107.758 68.6341 118.502L104.488 144.5L164.372 186.448C191.928 204.922 210 235.901 210 271C210 327.609 162.99 373.5 105 373.5C47.3312 373.5 0.521011 328.116 0.00431904 271.94C0.252289 255.859 11.1524 242.3 26.122 237.687L34.3697 194.732C34.9962 191.468 39.7843 191.468 40.4108 194.732L48.6585 237.687C63.8017 242.353 74.7805 256.175 74.7805 272.5C74.7805 287.939 64.9604 301.14 51.0849 306.474C49.5127 307.079 47.9681 307.877 46.9803 309.216C45.9005 310.679 45.5054 311.993 45.5203 313.769C45.5271 314.587 45.7209 315.394 46.0072 316.163C47.784 320.938 49.3466 323.519 52.241 327.624C63.8344 343.299 82.7118 353.5 104.03 353.5C139.285 353.5 167.864 325.601 167.864 291.186C167.864 270.61 157.648 252.363 141.898 241.016L103.976 213.5L47.6341 174.278C21.9599 157.065 5.12195 128.202 5.12195 95.5C5.12195 42.7568 48.9216 0 102.951 0C156.981 0 200.78 37.7568 200.78 90.5V90.8133C200.78 107.138 189.802 115.96 174.659 120.627L166.411 163.582C165.784 166.845 160.996 166.845 160.37 163.582L152.122 120.627C136.979 115.96 126 102.138 126 85.8133C126 70.6372 135.488 57.6244 148.989 52.119C150.984 51.3056 152.783 50.0313 153.998 48.2524C155.994 45.3305 156.203 41.5428 154.542 38.4186L153.871 37.1554C153.639 36.7191 153.376 36.2995 153.077 35.9059C142.066 21.4016 124.402 12 104.488 12Z" fill="white"/>
</svg>
